<?xml version="1.0" encoding="UTF-8" standalone="no"?>
<!-- Created with Inkscape (http://www.inkscape.org/) -->

<svg
   version="1.1"
   id="svg1"
   width="2730.6667"
   height="2730.6667"
   viewBox="0 0 2730.6667 2730.6667"
   xmlns="http://www.w3.org/2000/svg"
   xmlns:svg="http://www.w3.org/2000/svg">
  <defs
     id="defs1" />
  <g
     id="layer1"
     style="display:inline">
    <path
       style="display:inline;fill:#f88b32;fill-opacity:1"
       d="m 1362.6667,2084.7761 -14,-8.4151 -23.3333,-13.7196 -23.3334,-13.7195 -24,-14.2912 -24,-14.2911 -18,-10.3286 -18,-10.3286 -27.3333,-16.0363 -27.3333,-16.0364 -21.3334,-12.6865 -21.3333,-12.6866 -35.3333,-20.6471 -35.3334,-20.6471 -17.3333,-10.0043 -17.3333,-10.0044 -22.6667,-13.2816 -22.66667,-13.2815 -1.33333,-1.0143 -1.33334,-1.0142 -17.33333,-9.9828 -17.33334,-9.9828 -36,-21.0501 -36,-21.0501 -12.66666,-7.3215 -12.66667,-7.3215 -26,-15.3707 -26,-15.3707 -13.66667,-7.9541 -13.66667,-7.9542 -0.0355,-1.4918 -0.0355,-1.4917 -0.2978,-363.1317 -0.2978,-363.13169 20.66666,-12.0624 20.66667,-12.06241 17.33333,-9.9783 17.33334,-9.97831 24.66667,-14.65799 24.66666,-14.65798 8.66667,-5.03141 8.66667,-5.03142 19.66666,-11.47157 19.66667,-11.47156 19.66667,-11.46943 19.66667,-11.46942 16.66666,-9.7213 16.66668,-9.72131 34.6667,-20.35466 34.6667,-20.35466 7.3333,-4.25544 7.3333,-4.25544 24.6667,-14.37744 24.6667,-14.37744 12.6666,-7.33507 12.6667,-7.33507 24,-13.95997 24,-13.95996 8.6667,-5.0261 8.6666,-5.0261 14.6667,-8.66413 14.6667,-8.66413 19.3333,-11.02339 19.3333,-11.0234 3.3334,-2.29415 3.3333,-2.29415 22.6667,-13.04601 22.6666,-13.04601 11.3334,-6.63486 11.3333,-6.63486 1.4367,-0.0603 1.4367,-0.0603 27.23,16.03665 27.2299,16.03664 11.3334,6.43983 11.3333,6.43983 43.3333,25.26023 43.3334,25.26022 26.6666,15.6325 26.6667,15.6325 27.3333,15.7813 27.3334,15.7813 10.6666,6.21557 10.6667,6.21557 15.3334,9.0492 15.3333,9.04921 16.6667,9.64491 16.6666,9.64491 11.3334,6.61801 11.3333,6.618 58,34.04865 58,34.04865 10.6667,6.28296 10.6666,6.28295 52,30.34388 52,30.34387 0.3358,364.6217 0.3357,364.6217 -5.6691,3.1423 -5.669,3.1422 -24,14.2154 -24,14.2154 -25.3334,14.711 -25.3333,14.711 -31.3333,18.3467 -31.3334,18.3467 -17.3333,10.2539 -17.3333,10.2538 -16,9.4144 -16,9.4143 -20.2586,11.83 -20.2585,11.83 -23.5074,13.8332 -23.5074,13.8332 -26.9007,15.5732 -26.9008,15.5732 -23.3333,13.7635 -23.3334,13.7636 -5.0679,3.2272 -5.0679,3.2273 -20.9321,12.0869 -20.9321,12.0868 -7.3333,4.2937 -7.3333,4.2938 -35.3334,20.6822 -35.3333,20.6822 -16.6667,9.7966 -16.6666,9.7967 -11.9912,7.0767 -11.9911,7.0767 -1.3422,-0.071 -1.3422,-0.071 z"
       id="path13367" />
    <path
       style="display:inline;fill:#1a2a41;fill-opacity:1"
       d="m 1388.0842,2045.539 8.5825,-5.1276 10,-5.7289 10,-5.7289 16,-9.3719 16,-9.372 20.6667,-12.188 20.6666,-12.188 13.3334,-7.7928 13.3333,-7.7928 17.3333,-10.2352 17.3334,-10.2352 16.6666,-9.76 16.6667,-9.7599 16,-9.345 16,-9.3449 14,-8.2847 14,-8.2847 28,-16.3916 28,-16.3916 18.6667,-10.8547 18.6667,-10.8547 28,-16.4761 28,-16.476 15.3333,-8.8879 15.3333,-8.888 20,-11.7142 20,-11.7143 30,-17.6833 30,-17.6832 19.6667,-11.5767 19.6667,-11.5767 v -343.7742 -343.7742 l -15,-8.5855 -15,-8.5855 -36.4649,-21.65489 -36.4649,-21.65489 -6.2018,-3.441 -6.2018,-3.44101 -12,-6.90788 -12,-6.90789 -10,-6.01044 -10,-6.01044 -21.3333,-12.3989 -21.3333,-12.3989 -16,-9.34093 -16,-9.34094 -14,-8.28329 -14,-8.28328 -18,-10.36904 -18.0001,-10.36903 -25.3333,-14.69873 -25.3333,-14.69873 -18,-10.57205 -18,-10.57205 -7.3334,-4.37119 -7.3333,-4.37119 -32,-18.66741 -32,-18.66741 -17.3333,-9.94276 -17.3334,-9.94277 -43.778,-25.59733 -43.778,-25.59734 -7.5553,4.26458 -7.5553,4.26458 -40,23.31167 -40,23.31167 -28.2823,16.33072 -28.2822,16.33072 -3.9236,2.79385 -3.9236,2.79384 h -0.7469 -0.7468 l -9.714,5.77783 -9.714,5.77783 -14,8.0764 -14,8.07641 -20,11.63889 -20,11.63889 -20.6666,12.02121 -20.6667,12.02121 -12,6.97747 -12,6.97748 -24,13.99134 -24,13.99134 -15.3333,9.05553 -15.33337,9.05553 -19.33333,11.3291 -19.33334,11.3291 -11.33333,6.66174 -11.33334,6.66173 -28,16.228 -28,16.228 -22.66666,13.40971 -22.66667,13.40974 -15.33334,8.7335 -15.33333,8.7336 -0.33587,344.6223 -0.33587,344.6222 2.33587,0.8897 2.33587,0.8898 18.66667,10.822 18.66666,10.822 22.00001,12.9167 22,12.9168 9.33333,5.3227 9.33333,5.3227 27.33334,15.9931 27.33333,15.9931 16.66667,9.7508 16.66667,9.7507 16,9.4182 16,9.4181 2.6667,1.4653 2.6666,1.4652 16,9.408 16,9.4081 34,19.915 34,19.9151 43.3334,25.3714 43.3333,25.3715 57.3333,33.6814 57.3334,33.6814 20.6666,12.3062 20.6667,12.3061 6,3.4977 6,3.4978 1.4175,0.052 1.4175,0.052 z"
       id="path13366" />
    <path
       style="display:inline;fill:#ffffff;fill-opacity:1"
       d="m 1357,1264.2529 -5,-0.4138 v -39.8726 -39.8726 l 2.3334,-1.243 2.3333,-1.243 9.3333,-0.9158 9.3334,-0.9158 10.6666,-2.4853 10.6667,-2.4854 8.6667,-3.4274 8.6666,-3.4273 8,-4.8488 8,-4.8489 9.3334,-8.038 9.3333,-8.0381 5.7804,-6.0885 5.7804,-6.0886 26.2196,-37.0598 26.2196,-37.0599 12.4583,-17.3633 12.4583,-17.3632 1.5417,-0.5878 1.5417,-0.5877 114.2162,0.3442 114.2162,0.3442 -12.8828,17.3895 -12.8829,17.3895 -20,27.8331 -20,27.8331 -5.8499,6.5104 -5.8499,6.5105 -5.4835,2.9336 -5.4834,2.9336 -96.6667,0.6667 -96.6666,0.6667 -6.2448,4.3364 -6.2447,4.3365 -2.7833,3.9088 -2.7834,3.9087 -1.9719,5.5891 -1.9719,5.5891 v 52.499 52.499 l -1.6667,0.1696 -1.6667,0.1696 -50,0.1638 -50,0.1637 z"
       id="path13365" />
    <path
       style="display:inline;fill:#ffffff;fill-opacity:1"
       d="m 1349.3334,1602.6667 v -133.3333 l 0.3333,-0.032 0.3333,-0.032 15.4288,-1.1953 15.4287,-1.1954 7.2379,-2.1268 7.238,-2.1268 8.9848,-4.9796 8.9847,-4.9796 8.3486,-7.2765 8.3485,-7.2765 13.5887,-15.3902 13.5887,-15.3901 9.1506,-12 9.1506,-12 26.2694,-34.9267 26.2693,-34.9266 1.2477,-0.7712 1.2478,-0.7711 92.0688,-0.1993 92.0688,-0.1992 0.7533,0.7533 0.7534,0.7534 -19.0785,26.9011 -19.0785,26.9011 -13.1286,18.2426 -13.1286,18.2426 -3.5381,3.7888 -3.5381,3.7887 -4.709,2.4232 -4.7089,2.4232 -7.8693,1.4547 -7.8692,1.4547 h -73.8157 -73.8158 l -3.2727,3.2727 -3.2727,3.2728 -4e-4,123.7272 -3e-4,123.7273 -12.9997,7.2534 -12.9996,7.2533 -30,16.8961 -30,16.8961 -14.1126,7.5172 -14.1126,7.5173 h -0.8874 -0.8874 z"
       id="path13363" />
    <path
       style="display:inline;fill:#f3393f;fill-opacity:1"
       d="m 1099.6331,1426.3334 0.2998,-303 0.034,-51.3334 0.034,-51.3333 177,0.2228 177,0.2227 4.259,0.1106 4.259,0.1106 3.5591,3.0614 3.5591,3.0614 -25.8712,35.2719 -25.8713,35.2719 -3.2157,4.6667 -3.2158,4.6667 -5.3833,6.464 -5.3834,6.464 -5.6624,3.3184 -5.6624,3.3184 -7.0187,1.8684 -7.0186,1.8685 -81.5661,0.016 -81.5661,0.016 -0.016,87 -0.016,87 0.6747,3.6059 0.6746,3.6058 116.9075,0.399 116.9074,0.399 2.3333,1.1378 2.3333,1.1378 v 3.0141 3.0142 l -5.7309,8.5098 -5.7309,8.5099 -5.1176,7.3334 -5.1177,7.3333 -4.2628,5.3333 -4.2628,5.3334 -12.5274,18 -12.5275,18 -4.2841,4.743 -4.2842,4.743 -7.3803,3.7341 -7.3803,3.7341 -10.3634,1.1982 -10.3634,1.1983 -67.3333,-0.1026 -67.3334,-0.1027 -2.6895,0.094 -2.6896,0.094 0.023,123.8334 0.023,123.8333 -3.3333,1.9404 -3.3334,1.9404 -13.3333,7.7823 -13.3333,7.7822 -7.3334,3.9362 -7.3333,3.9363 -8,4.7306 -8,4.7307 -4.6667,2.9055 -4.6666,2.9056 -18.2518,10.2049 -18.2519,10.2049 h -1.7481 l -1.7482,10e-5 z"
       id="path13364" />
  </g>
</svg>
