<?xml version="1.0" encoding="UTF-8" standalone="no"?>
<!-- Created with Inkscape (http://www.inkscape.org/) -->

<svg
   version="1.1"
   id="svg1"
   width="3616"
   height="1184"
   viewBox="0 0 3616 1184"
   sodipodi:docname="logo_flat.svg"
   inkscape:export-filename="logo_flat_sfm.svg"
   inkscape:export-xdpi="96"
   inkscape:export-ydpi="96"
   inkscape:version="1.4.3 (fcd0343856, 2026-01-01)"
   xmlns:inkscape="http://www.inkscape.org/namespaces/inkscape"
   xmlns:sodipodi="http://sodipodi.sourceforge.net/DTD/sodipodi-0.dtd"
   xmlns="http://www.w3.org/2000/svg"
   xmlns:svg="http://www.w3.org/2000/svg">
  <defs
     id="defs1">
    <rect
       x="1277.8483"
       y="416.8089"
       width="2325.8181"
       height="218.05815"
       id="rect5" />
  </defs>
  <sodipodi:namedview
     id="namedview1"
     pagecolor="#ffffff"
     bordercolor="#000000"
     borderopacity="0.25"
     inkscape:showpageshadow="2"
     inkscape:pageopacity="0.0"
     inkscape:pagecheckerboard="0"
     inkscape:deskcolor="#d1d1d1"
     inkscape:zoom="1.5471872"
     inkscape:cx="1575.1165"
     inkscape:cy="475.05564"
     inkscape:window-width="3840"
     inkscape:window-height="1494"
     inkscape:window-x="0"
     inkscape:window-y="0"
     inkscape:window-maximized="1"
     inkscape:current-layer="g1"
     inkscape:export-bgcolor="#1a2a41ff" />
  <g
     inkscape:groupmode="layer"
     inkscape:label="Image"
     id="g1">
    <path
       style="fill:#f88b32;stroke:none;stroke-opacity:1;fill-opacity:1"
       d="M 754.90382,980.68908 C 746.98172,976.13416 722.725,961.8864 701,949.02739 c -21.725,-12.85901 -51.875,-30.65251 -67,-39.54111 -15.125,-8.88859 -35.52038,-20.97598 -45.32308,-26.86086 -9.80269,-5.88487 -21.95269,-13.1063 -27,-16.0476 C 520.73397,842.71841 451.87633,802.20089 436.25,792.77354 L 423,784.77983 V 584.45801 384.13619 l 2.75,-1.94663 c 1.5125,-1.07064 10.625,-6.5553 20.25,-12.18812 9.625,-5.63283 28.525,-16.77201 42,-24.75375 13.475,-7.98174 31.025,-18.35708 39,-23.05632 7.975,-4.69924 18.775,-11.0886 24,-14.19858 5.225,-3.10998 16.25,-9.6094 24.5,-14.44316 8.25,-4.83376 17.25,-10.15496 20,-11.82489 8.12821,-4.93583 24.95368,-14.89847 41,-24.2768 8.25,-4.82174 19.275,-11.33223 24.5,-14.46774 5.225,-3.13551 17.15,-10.09716 26.5,-15.47033 20.49893,-11.78012 16.32717,-9.31884 50.68519,-29.9035 32.72868,-19.60849 30.43543,-18.67619 36.5511,-14.85953 2.62004,1.63512 9.26371,5.59214 14.76371,8.79339 5.5,3.20124 16.525,9.72554 24.5,14.49844 7.975,4.7729 22.15,13.08316 31.5,18.46724 9.35,5.38409 19.925,11.57879 23.5,13.76599 3.575,2.18721 8.075,4.86172 10,5.94336 1.925,1.08164 5.525,3.2062 8,4.72124 4.49592,2.75211 9.34927,5.62206 61,36.07131 15.125,8.91653 34.925,20.60335 44,25.97071 9.075,5.36736 31.35,18.45218 49.5,29.07738 45.223,26.47399 65.3201,38.40041 69.75,41.39234 l 3.75,2.53275 v 199.81838 c 0,158.34768 -0.2594,200.14539 -1.25,201.39403 -0.6875,0.86661 -8,5.51555 -16.25,10.33097 -8.25,4.81543 -26.7,15.75681 -41,24.31418 -14.3,8.55736 -34.325,20.35534 -44.5,26.21772 -18.73526,10.79441 -71.55457,41.91936 -124.5,73.36439 -15.95,9.47292 -31.25,18.49152 -34,20.04133 -4.23407,2.38619 -42.02877,24.72392 -66,39.00786 -3.85,2.29413 -9.51828,5.59535 -12.59618,7.33603 l -5.59617,3.16488 z"
       id="path5" />
    <path
       style="fill:#1a2a41;stroke:none;stroke-opacity:1;fill-opacity:1"
       d="m 782.61214,946.37691 c 7.08832,-4.1927 23.68786,-14.0451 36.88786,-21.89422 13.2,-7.84911 29.30481,-17.23402 35.78847,-20.85533 6.48366,-3.62132 13.68366,-7.85538 16,-9.40903 2.31634,-1.55364 10.06153,-6.24666 17.21153,-10.42893 7.15,-4.18226 20.875,-12.21105 30.5,-17.84175 9.625,-5.6307 19.975,-11.68205 23,-13.44744 3.025,-1.76539 13.825,-8.14723 24,-14.18185 10.175,-6.03463 25.25,-14.92975 33.5,-19.76693 25.3682,-14.87403 37.2075,-21.87861 58.2953,-34.48977 11.1625,-6.67549 21.8512,-12.87916 23.7527,-13.78593 l 3.4573,-1.64868 -0.2526,-184.02554 -0.2527,-184.02554 -11,-6.62836 c -6.05,-3.6456 -14.825,-8.87164 -19.5,-11.61341 -4.675,-2.74177 -21.775,-12.87936 -38,-22.52797 -38.14153,-22.68184 -85.65291,-50.56509 -99,-58.10065 -5.775,-3.26047 -22.65,-13.22319 -37.5,-22.13936 C 864.65,270.65005 848.225,260.86099 843,257.81276 817.38229,242.86753 776.20195,218.46683 773.84563,216.83652 772.38573,215.82644 770.44086,215 769.5237,215 c -2.10681,0 -1.19653,-0.52553 -80.5237,46.48836 -8.525,5.05241 -21.125,12.47208 -28,16.48817 -6.875,4.01608 -21.275,12.467 -32,18.77983 -10.725,6.31282 -29.85,17.55207 -42.5,24.97611 -12.65,7.42403 -29.75,17.56364 -38,22.53245 -8.25,4.96882 -20.4,12.18686 -27,16.04008 -21.35335,12.46656 -65.97426,39.02547 -66.8961,39.81739 -0.52318,0.44944 -0.82343,75.8054 -0.72149,181.07371 0.096,99.16714 0.16177,181.94981 0.1461,183.96148 l -0.0285,3.65759 14.25,8.25626 c 7.8375,4.54095 25.275,14.78694 38.75,22.76886 13.475,7.98193 28.55,16.85179 33.5,19.7108 4.95,2.85901 12.825,7.4498 17.5,10.20175 4.675,2.75195 25.15,14.78271 45.5,26.73502 20.35,11.95231 51.175,30.16996 68.5,40.48367 17.325,10.31371 40.725,24.15683 52,30.76248 11.275,6.60566 25.675,15.16701 32,19.02522 14.1286,8.61835 11.32726,8.65859 26.61214,-0.38232 z"
       id="path4" />
    <path
       style="fill:#ffffff;stroke:none;stroke-opacity:1;fill-opacity:1"
       d="M 754.66667,522.33333 C 754.3,521.96667 754,511.62524 754,499.35239 V 477.0381 l 2.25,-0.4607 c 1.2375,-0.25338 5.00801,-0.72814 8.37892,-1.05501 26.94483,-2.61278 47.81509,-19.58099 73.97849,-60.14697 8.38085,-12.99441 16.03914,-22.8673 20.21732,-26.06373 L 862.5,386.5 l 60.93238,-0.287 c 65.11498,-0.30671 64.24415,-0.34562 62.56292,2.79579 -1.08628,2.02972 -21.12128,30.75355 -28.57878,40.97288 -13.66776,18.72953 -10.72739,18.00596 -73.19864,18.01275 -70.26801,0.008 -65.15346,-3.46188 -65.97571,44.75558 L 817.72632,523 h -31.19649 c -17.15807,0 -31.4965,-0.3 -31.86316,-0.66667 z"
       id="path3" />
    <path
       style="fill:#f3393f;stroke:none;stroke-opacity:1;fill-opacity:1"
       d="m 613.98138,733.75 c -0.12159,-321.5665 -0.0623,-344.07394 0.91033,-345.60903 0.70349,-1.1103 8.06715,-1.34267 40.23469,-1.26966 21.65548,0.0491 67.6111,0.0982 102.1236,0.10903 53.82788,0.0169 62.75,0.22362 62.75,1.45413 0,3.62974 -34.6995,50.59658 -41.34484,55.96151 l -3.84484,3.10402 -47.65516,0.10431 c -26.21034,0.0574 -48.21766,0.16987 -48.90516,0.25 -1.63581,0.19066 -1.84717,100.65858 -0.21388,101.66801 0.56986,0.3522 30.48889,0.73278 66.48673,0.84575 78.80991,0.24731 74.8476,-3.51004 41.62468,39.47153 -17.14193,22.17708 -10.83095,20.20301 -64.38348,20.13912 -24.21298,-0.0289 -44.2767,0.2006 -44.58606,0.50996 -0.30936,0.30935 -0.58846,31.78846 -0.62023,69.95356 -0.0318,38.1651 -0.31768,69.65101 -0.63537,69.9687 C 674.08879,752.24454 616.60032,783 615.00652,783 c -0.66148,0 -1.0129,-16.88303 -1.02514,-49.25 z"
       id="path2" />
    <path
       style="fill:#ffffff;stroke:none;stroke-opacity:1;fill-opacity:1"
       d="m 752.82694,716.25 c -0.20607,-83.05111 -0.30748,-76.33497 1.16641,-77.24589 0.65761,-0.40642 3.74062,-1.01175 6.85115,-1.34518 22.70434,-2.43373 41.58714,-15.89201 61.6555,-43.94351 3.85,-5.38153 10.74549,-15.05653 15.32332,-21.5 9.75749,-13.73408 14.46939,-18.92908 18.89456,-20.8318 C 860.52907,549.74489 958,549.29382 958,550.91491 c 0,2.04289 -33.70397,48.49245 -38.19378,52.63725 -6.87986,6.3512 -3.27148,5.90523 -52.16968,6.44784 l -45.05842,0.5 -2.28906,3.39788 L 818,617.29577 v 67.23596 67.23595 l -15.25,8.98087 C 766.7567,781.94532 759.17606,786 755.53984,786 H 753 Z"
       id="path1" />
    <path
       id="text5"
       style="font-style:normal;font-variant:normal;font-weight:normal;font-stretch:normal;font-size:160px;font-family:Geist;-inkscape-font-specification:'Geist, Normal';font-variant-ligatures:normal;font-variant-caps:normal;font-variant-numeric:normal;font-variant-east-asian:normal;writing-mode:lr-tb;direction:ltr;white-space:pre;shape-inside:url(#rect5);display:inline;fill:#ffffff;fill-opacity:1;stroke:#000000;stroke-width:3.5;stroke-linecap:round;stroke-linejoin:round;stroke-dasharray:none;stroke-opacity:1;paint-order:stroke fill markers"
       d="M 1431.2872 444.34062 C 1420.5138 444.34062 1411.234 446.74179 1403.4473 451.54179 C 1395.7673 456.34179 1389.8475 463.22047 1385.6875 472.18047 C 1381.5275 481.0338 1379.4473 491.59349 1379.4473 503.86015 C 1379.4473 516.12682 1381.5275 526.68846 1385.6875 535.54179 C 1389.8475 544.39513 1395.7673 551.22031 1403.4473 556.02031 C 1411.234 560.71364 1420.5138 563.06133 1431.2872 563.06133 C 1442.1672 563.06133 1451.447 560.71364 1459.127 556.02031 C 1466.9137 551.22031 1472.8869 544.39513 1477.0469 535.54179 C 1481.2069 526.68846 1483.2872 516.12682 1483.2872 503.86015 C 1483.2872 491.59349 1481.2069 481.0338 1477.0469 472.18047 C 1472.8869 463.22047 1466.9137 456.34179 1459.127 451.54179 C 1451.447 446.74179 1442.1672 444.34062 1431.2872 444.34062 z M 2077.2051 444.34062 C 2069.4185 444.34062 2062.6983 445.72745 2057.045 448.50078 C 2051.3916 451.16745 2047.0192 454.95349 2043.9258 459.86015 C 2040.9392 464.66015 2039.4454 470.26094 2039.4454 476.66094 C 2039.4454 482.31427 2040.5647 487.06117 2042.8047 490.90117 C 2045.1514 494.74117 2048.8859 497.99427 2054.0059 500.66094 C 2059.2326 503.3276 2066.2182 505.78031 2074.9649 508.02031 C 2084.0316 510.26031 2090.8587 512.5545 2095.4454 514.90117 C 2100.1387 517.14117 2103.2848 519.64737 2104.8848 522.4207 C 2106.5915 525.08737 2107.4454 528.18 2107.4454 531.7 C 2107.4454 535.54 2106.433 538.79505 2104.4063 541.46172 C 2102.4863 544.12838 2099.6592 546.15513 2095.9258 547.54179 C 2092.1925 548.92846 2087.6595 549.62187 2082.3262 549.62187 C 2076.2462 549.62187 2071.0199 548.60752 2066.6465 546.58086 C 2062.3799 544.55419 2058.9663 541.56854 2056.4063 537.62187 C 2053.8463 533.67521 2052.192 528.87482 2051.4454 523.22148 L 2037.045 524.18047 C 2037.685 531.86047 2039.8722 538.63411 2043.6055 544.50078 C 2047.4455 550.26078 2052.6184 554.79372 2059.125 558.10039 C 2065.6317 561.40706 2073.2592 563.06133 2082.0059 563.06133 C 2089.7926 563.06133 2096.6732 561.78148 2102.6465 559.22148 C 2108.6199 556.55482 2113.3113 552.82031 2116.7247 548.02031 C 2120.138 543.11364 2121.8457 537.35435 2121.8457 530.74101 C 2121.8457 525.30101 2120.6194 520.44713 2118.1661 516.18047 C 2115.8194 511.9138 2111.8194 508.18125 2106.1661 504.98125 C 2100.6194 501.67458 2093.0988 498.84745 2083.6055 496.50078 C 2075.6055 494.47411 2069.4718 492.60784 2065.2051 490.90117 C 2060.9385 489.08784 2057.9528 487.06109 2056.2461 484.82109 C 2054.6461 482.47443 2053.8457 479.54031 2053.8457 476.02031 C 2053.8457 470.58031 2055.926 466.20784 2060.086 462.90117 C 2064.246 459.48784 2069.8448 457.78008 2076.8848 457.78008 C 2082.5381 457.78008 2087.3385 458.79443 2091.2852 460.82109 C 2095.2319 462.84776 2098.3264 465.67489 2100.5664 469.30156 C 2102.9131 472.82156 2104.405 476.87505 2105.045 481.46172 L 2119.4454 480.50078 C 2118.592 473.56745 2116.4048 467.38023 2112.8848 461.94023 C 2109.3648 456.50023 2104.6199 452.23474 2098.6465 449.1414 C 2092.6732 445.9414 2085.5251 444.34062 2077.2051 444.34062 z M 2670.1641 444.34062 C 2660.0308 444.34062 2651.1234 446.74179 2643.4434 451.54179 C 2635.7634 456.34179 2629.7901 463.22047 2625.5235 472.18047 C 2621.2568 481.0338 2619.1231 491.59349 2619.1231 503.86015 C 2619.1231 516.12682 2621.2568 526.68846 2625.5235 535.54179 C 2629.7901 544.39513 2635.7634 551.22031 2643.4434 556.02031 C 2651.1234 560.71364 2660.0308 563.06133 2670.1641 563.06133 C 2679.2308 563.06133 2687.0703 561.35357 2693.6836 557.94023 C 2700.4036 554.42023 2705.7905 549.56831 2709.8438 543.38164 C 2713.8971 537.19497 2716.6173 529.99341 2718.0039 521.78008 L 2703.4434 520.82109 C 2702.0567 529.67443 2698.6432 536.71357 2693.2032 541.94023 C 2687.7632 547.06023 2680.0841 549.62187 2670.1641 549.62187 C 2662.9108 549.62187 2656.5096 547.80713 2650.9629 544.18047 C 2645.5229 540.5538 2641.2574 535.32745 2638.1641 528.50078 C 2635.0708 521.67411 2633.5235 513.46015 2633.5235 503.86015 C 2633.5235 494.26015 2635.0708 486.04815 2638.1641 479.22148 C 2641.2574 472.28815 2645.5229 467.00831 2650.9629 463.38164 C 2656.5096 459.64831 2662.9108 457.78008 2670.1641 457.78008 C 2679.6574 457.78008 2687.0175 460.12776 2692.2442 464.82109 C 2697.4708 469.51443 2700.8825 475.91364 2702.4825 484.02031 L 2717.043 483.06133 C 2714.6963 471.11466 2709.7374 461.67435 2702.1641 454.74101 C 2694.5908 447.80768 2683.9241 444.34062 2670.1641 444.34062 z M 2996.4024 444.34062 C 2985.6291 444.34062 2976.3492 446.74179 2968.5625 451.54179 C 2960.8825 456.34179 2954.9628 463.22047 2950.8028 472.18047 C 2946.6428 481.0338 2944.5625 491.59349 2944.5625 503.86015 C 2944.5625 516.12682 2946.6428 526.68846 2950.8028 535.54179 C 2954.9628 544.39513 2960.8825 551.22031 2968.5625 556.02031 C 2976.3492 560.71364 2985.6291 563.06133 2996.4024 563.06133 C 3007.2824 563.06133 3016.5622 560.71364 3024.2422 556.02031 C 3032.0289 551.22031 3038.0022 544.39513 3042.1622 535.54179 C 3046.3222 526.68846 3048.4024 516.12682 3048.4024 503.86015 C 3048.4024 491.59349 3046.3222 481.0338 3042.1622 472.18047 C 3038.0022 463.22047 3032.0289 456.34179 3024.2422 451.54179 C 3016.5622 446.74179 3007.2824 444.34062 2996.4024 444.34062 z M 1502.8067 446.74101 L 1502.8067 520.82109 C 1502.8067 529.46109 1504.5144 536.98164 1507.9278 543.38164 C 1511.4478 549.67497 1516.4067 554.5269 1522.8067 557.94023 C 1529.3133 561.35357 1536.9409 563.06133 1545.6875 563.06133 C 1554.4342 563.06133 1562.0063 561.35357 1568.4063 557.94023 C 1574.8063 554.5269 1579.7137 549.67497 1583.127 543.38164 C 1586.647 536.98164 1588.4063 529.46109 1588.4063 520.82109 L 1588.4063 446.74101 L 1574.6465 446.74101 L 1574.6465 520.82109 C 1574.6465 529.99443 1572.0868 537.08706 1566.9668 542.10039 C 1561.9535 547.11372 1554.8609 549.62187 1545.6875 549.62187 C 1536.4075 549.62187 1529.2079 547.11372 1524.0879 542.10039 C 1519.0746 537.08706 1516.5664 529.99443 1516.5664 520.82109 L 1516.5664 446.74101 L 1502.8067 446.74101 z M 1292.5684 446.90117 L 1292.5684 560.50078 L 1306.3282 560.50078 L 1306.3282 511.54179 L 1361.0469 511.54179 L 1361.0469 498.4207 L 1306.3282 498.4207 L 1306.3282 460.34062 L 1363.9278 460.34062 L 1363.9278 446.90117 L 1292.5684 446.90117 z M 1617.8477 446.90117 L 1617.8477 560.50078 L 1631.6075 560.50078 L 1631.6075 462.58086 L 1686.8067 560.50078 L 1707.2872 560.50078 L 1707.2872 446.90117 L 1693.5274 446.90117 L 1693.5274 546.74101 L 1637.3672 446.90117 L 1617.8477 446.90117 z M 1733.5274 446.90117 L 1733.5274 560.50078 L 1769.6856 560.50078 C 1786.8589 560.50078 1800.0872 555.59341 1809.3672 545.78008 C 1818.6472 535.96674 1823.2872 521.99349 1823.2872 503.86015 C 1823.2872 485.62015 1818.5403 471.59341 1809.0469 461.78008 C 1799.6603 451.86008 1786.2199 446.90117 1768.7266 446.90117 L 1733.5274 446.90117 z M 1842.9668 446.90117 L 1842.9668 560.50078 L 1915.6055 560.50078 L 1915.6055 547.06133 L 1856.7266 547.06133 L 1856.7266 510.10039 L 1912.4063 510.10039 L 1912.4063 496.98125 L 1856.7266 496.98125 L 1856.7266 460.34062 L 1914.3262 460.34062 L 1914.3262 446.90117 L 1842.9668 446.90117 z M 1937.8457 446.90117 L 1937.8457 560.50078 L 1951.6055 560.50078 L 1951.6055 514.74101 L 1984.5664 514.74101 C 1991.1798 514.74101 1995.9267 515.86039 1998.8067 518.10039 C 2001.7933 520.34039 2003.4992 523.80745 2003.9258 528.50078 L 2006.8067 560.50078 L 2020.7266 560.50078 L 2017.5254 527.06133 C 2016.8854 520.02133 2014.5397 514.9 2010.4864 511.7 C 2007.8277 509.54429 2004.4907 508.11639 2000.4766 507.41289 C 2002.6351 506.76756 2004.7457 505.79625 2006.8067 504.50078 C 2010.54 502.15411 2013.5792 499.00799 2015.9258 495.06133 C 2018.3792 491.00799 2019.6055 486.42156 2019.6055 481.30156 C 2019.6055 474.26156 2018.0067 468.18133 2014.8067 463.06133 C 2011.7133 457.83466 2007.2854 453.83466 2001.5254 451.06133 C 1995.7654 448.28799 1988.8868 446.90117 1980.8868 446.90117 L 1937.8457 446.90117 z M 2185.3653 446.90117 L 2185.3653 560.50078 L 2199.125 560.50078 L 2199.125 511.54179 L 2253.8457 511.54179 L 2253.8457 498.4207 L 2199.125 498.4207 L 2199.125 460.34062 L 2256.7247 460.34062 L 2256.7247 446.90117 L 2185.3653 446.90117 z M 2296.4043 446.90117 L 2255.4454 560.50078 L 2270.4844 560.50078 L 2281.8438 528.18047 L 2329.5254 528.18047 L 2340.8848 560.50078 L 2355.9239 560.50078 L 2314.9649 446.90117 L 2296.4043 446.90117 z M 2370.6446 446.90117 L 2370.6446 560.50078 L 2416.084 560.50078 C 2428.4574 560.50078 2438.0047 557.8876 2444.7247 552.66094 C 2451.4447 547.43427 2454.8047 539.64823 2454.8047 529.30156 C 2454.8047 520.98156 2451.9776 514.2614 2446.3243 509.1414 C 2442.0891 505.15054 2436.6411 502.68267 2429.9805 501.73906 C 2432.8046 501.24729 2435.3719 500.40858 2437.6836 499.22148 C 2441.6303 497.08815 2444.6714 494.15403 2446.8047 490.4207 C 2448.9381 486.68737 2450.0039 482.36838 2450.0039 477.46172 C 2450.0039 466.90172 2446.6439 459.16721 2439.9239 454.26054 C 2433.2039 449.35388 2423.1236 446.90117 2409.6836 446.90117 L 2370.6446 446.90117 z M 2478.1641 446.90117 L 2478.1641 560.50078 L 2491.9239 560.50078 L 2491.9239 514.74101 L 2524.8848 514.74101 C 2531.4981 514.74101 2536.2431 515.86039 2539.1231 518.10039 C 2542.1098 520.34039 2543.8175 523.80745 2544.2442 528.50078 L 2547.1231 560.50078 L 2561.043 560.50078 L 2557.8438 527.06133 C 2557.2038 520.02133 2554.8581 514.9 2550.8047 511.7 C 2548.146 509.54429 2544.8091 508.11639 2540.795 507.41289 C 2542.9535 506.76756 2545.0621 505.79625 2547.1231 504.50078 C 2550.8564 502.15411 2553.8975 499.00799 2556.2442 495.06133 C 2558.6975 491.00799 2559.9239 486.42156 2559.9239 481.30156 C 2559.9239 474.26156 2558.3231 468.18133 2555.1231 463.06133 C 2552.0298 457.83466 2547.6038 453.83466 2541.8438 451.06133 C 2536.0838 448.28799 2529.2032 446.90117 2521.2032 446.90117 L 2478.1641 446.90117 z M 2585.6836 446.90117 L 2585.6836 560.50078 L 2599.4434 560.50078 L 2599.4434 446.90117 L 2585.6836 446.90117 z M 2764.5625 446.90117 L 2723.6036 560.50078 L 2738.6426 560.50078 L 2750.002 528.18047 L 2797.6836 528.18047 L 2809.043 560.50078 L 2824.0821 560.50078 L 2783.1231 446.90117 L 2764.5625 446.90117 z M 2814.8028 446.90117 L 2814.8028 460.34062 L 2850.1622 460.34062 L 2850.1622 560.50078 L 2863.9219 560.50078 L 2863.9219 460.34062 L 2899.2832 460.34062 L 2899.2832 446.90117 L 2814.8028 446.90117 z M 2911.1231 446.90117 L 2911.1231 560.50078 L 2924.8829 560.50078 L 2924.8829 446.90117 L 2911.1231 446.90117 z M 3068.0821 446.90117 L 3068.0821 560.50078 L 3081.8418 560.50078 L 3081.8418 462.58086 L 3137.0411 560.50078 L 3157.5215 560.50078 L 3157.5215 446.90117 L 3143.7618 446.90117 L 3143.7618 546.74101 L 3087.6016 446.90117 L 3068.0821 446.90117 z M 1431.2872 457.78008 C 1439.1805 457.78008 1445.9006 459.64831 1451.4473 463.38164 C 1457.1006 467.00831 1461.4216 472.28815 1464.4082 479.22148 C 1467.3949 486.04815 1468.8868 494.26015 1468.8868 503.86015 C 1468.8868 513.46015 1467.3949 521.67411 1464.4082 528.50078 C 1461.4216 535.32745 1457.1006 540.5538 1451.4473 544.18047 C 1445.9006 547.80713 1439.1805 549.62187 1431.2872 549.62187 C 1423.5005 549.62187 1416.7803 547.80713 1411.127 544.18047 C 1405.5803 540.5538 1401.3148 535.32745 1398.3282 528.50078 C 1395.3415 521.67411 1393.8477 513.46015 1393.8477 503.86015 C 1393.8477 494.26015 1395.3415 486.04815 1398.3282 479.22148 C 1401.3148 472.28815 1405.5803 467.00831 1411.127 463.38164 C 1416.7803 459.64831 1423.5005 457.78008 1431.2872 457.78008 z M 2996.4024 457.78008 C 3004.2957 457.78008 3011.0159 459.64831 3016.5625 463.38164 C 3022.2159 467.00831 3026.5349 472.28815 3029.5215 479.22148 C 3032.5082 486.04815 3034.002 494.26015 3034.002 503.86015 C 3034.002 513.46015 3032.5082 521.67411 3029.5215 528.50078 C 3026.5349 535.32745 3022.2159 540.5538 3016.5625 544.18047 C 3011.0159 547.80713 3004.2957 549.62187 2996.4024 549.62187 C 2988.6157 549.62187 2981.8956 547.80713 2976.2422 544.18047 C 2970.6956 540.5538 2966.4281 535.32745 2963.4414 528.50078 C 2960.4548 521.67411 2958.961 513.46015 2958.961 503.86015 C 2958.961 494.26015 2960.4548 486.04815 2963.4414 479.22148 C 2966.4281 472.28815 2970.6956 467.00831 2976.2422 463.38164 C 2981.8956 459.64831 2988.6157 457.78008 2996.4024 457.78008 z M 2305.6856 458.90117 L 2324.8848 514.74101 L 2286.4844 514.74101 L 2305.6856 458.90117 z M 2773.8438 458.90117 L 2793.043 514.74101 L 2754.6426 514.74101 L 2773.8438 458.90117 z M 1747.2872 460.34062 L 1768.7266 460.34062 C 1782.0599 460.34062 1792.0867 463.96815 1798.8067 471.22148 C 1805.5267 478.36815 1808.8868 489.24682 1808.8868 503.86015 C 1808.8868 518.26015 1805.5267 529.08729 1798.8067 536.34062 C 1792.0867 543.48729 1782.0599 547.06133 1768.7266 547.06133 L 1747.2872 547.06133 L 1747.2872 460.34062 z M 1951.6055 460.34062 L 1980.8868 460.34062 C 1988.7801 460.34062 1994.8068 462.15341 1998.9668 465.78008 C 2003.1268 469.30008 2005.2051 474.36791 2005.2051 480.98125 C 2005.2051 487.48791 2003.1784 492.50031 1999.125 496.02031 C 1995.0717 499.54031 1989.5799 501.30156 1982.6465 501.30156 L 1951.6055 501.30156 L 1951.6055 460.34062 z M 2384.4043 460.34062 L 2409.6836 460.34062 C 2418.3236 460.34062 2424.7783 461.83443 2429.045 464.82109 C 2433.4183 467.70109 2435.6036 472.12706 2435.6036 478.10039 C 2435.6036 483.75372 2433.3648 488.18164 2428.8848 491.38164 C 2424.4048 494.47497 2418.0036 496.02031 2409.6836 496.02031 L 2384.4043 496.02031 L 2384.4043 460.34062 z M 2491.9239 460.34062 L 2521.2032 460.34062 C 2529.0965 460.34062 2535.1232 462.15341 2539.2832 465.78008 C 2543.4432 469.30008 2545.5235 474.36791 2545.5235 480.98125 C 2545.5235 487.48791 2543.4967 492.50031 2539.4434 496.02031 C 2535.3901 499.54031 2529.8982 501.30156 2522.9649 501.30156 L 2491.9239 501.30156 L 2491.9239 460.34062 z M 2384.4043 509.46172 L 2416.084 509.46172 C 2423.8707 509.46172 2429.8439 511.16752 2434.0039 514.58086 C 2438.2706 517.88752 2440.4043 522.52745 2440.4043 528.50078 C 2440.4043 534.47411 2438.2706 539.06054 2434.0039 542.26054 C 2429.8439 545.46054 2423.8707 547.06133 2416.084 547.06133 L 2384.4043 547.06133 L 2384.4043 509.46172 z "
       transform="translate(-141.17973,91.909377)" />
  </g>
</svg>
